<?xml version="1.0" encoding="UTF-8"?> <svg xmlns="http://www.w3.org/2000/svg" xmlns:xlink="http://www.w3.org/1999/xlink" version="1.1" id="Calque_1" x="0px" y="0px" viewBox="0 0 143.15 192.47" style="enable-background:new 0 0 143.15 192.47;" xml:space="preserve"> <style type="text/css"> .st0{clip-path:url(#SVGID_00000169525556645761819270000012626676322658753962_);} </style> <g> <defs> <rect id="SVGID_1_" x="11.84" y="12.05" width="119.28" height="168.38"></rect> </defs> <clipPath id="SVGID_00000183233173186452439710000003345217885033547192_"> <use xlink:href="#SVGID_1_" style="overflow:visible;"></use> </clipPath> <path style="clip-path:url(#SVGID_00000183233173186452439710000003345217885033547192_);" d="M127.49,175.57 c0.02-1.11,0.38-1.6,1.09-1.6c0.78,0,1.04,0.64,1.04,1.57v0.02H127.49z M125.93,175.75c0,2.22,0.95,3.22,2.89,3.22 c0.87,0,1.7-0.19,2.15-0.34v-1.28c-0.47,0.15-1.27,0.33-1.97,0.33c-0.93,0-1.37-0.34-1.48-1.21h3.54c0.02-0.29,0.05-0.65,0.05-0.96 c0-1.99-0.85-2.99-2.57-2.99C126.86,172.52,125.93,173.63,125.93,175.75 M127.13,160.78h-1.63v4.32c0,1.43,0.44,2.04,1.41,2.04 c1,0,1.88-0.74,2.46-1.65l0.23,1.55h1.35v-6.25h-1.63v3.44c-0.4,0.7-1.03,1.22-1.58,1.22c-0.42,0-0.61-0.24-0.61-0.8V160.78z M116.97,172.62h-1.35v6.25h1.63v-3.44c0.36-0.7,0.94-1.19,1.42-1.19c0.41,0,0.61,0.27,0.61,0.86v3.77h1.63v-3.44 c0.36-0.7,0.94-1.19,1.42-1.19c0.41,0,0.61,0.27,0.61,0.86v3.77h1.63v-4.31c0-1.44-0.42-2.05-1.35-2.05 c-0.93,0-1.76,0.73-2.32,1.61c-0.08-1.13-0.51-1.61-1.34-1.61c-0.96,0-1.79,0.76-2.35,1.65L116.97,172.62z M122.33,162.68v0.1 c0,1.67-0.68,2.91-1.49,2.91c-0.59,0-0.91-0.54-0.91-1.75c0-1.29,0.51-1.82,1.19-1.82C121.66,162.13,122.13,162.43,122.33,162.68 M122.31,159.27l0.02,2.13c-0.34-0.34-1-0.72-1.75-0.72c-1.49,0-2.3,1.09-2.3,3.23c0,2.24,0.72,3.22,2.05,3.22 c1.14,0,1.77-0.9,2.05-1.65l0.23,1.55h1.35v-7.76H122.31z M112.68,177.37c0,0.22-0.2,0.35-0.7,0.35c-0.56,0-1.28-0.19-1.7-0.33 v1.27c0.39,0.13,1.21,0.31,2,0.31c1.27,0,1.99-0.55,1.99-1.56c0-0.79-0.5-1.2-1.36-1.6l-0.57-0.26c-0.4-0.19-0.59-0.38-0.59-0.7 c0-0.36,0.28-0.64,0.92-0.64c0.44,0,0.98,0.11,1.4,0.23v-1.71c-0.35-0.1-0.95-0.23-1.55-0.23c-1.41,0-2.3,0.87-2.3,2.11 c0,1.06,0.5,1.63,1.34,2.03l0.57,0.26C112.55,177.1,112.68,177.22,112.68,177.37 M110.96,163.73c0.02-1.11,0.38-1.6,1.09-1.6 c0.78,0,1.04,0.64,1.04,1.57v0.02H110.96z M109.4,163.91c0,2.22,0.95,3.22,2.89,3.22c0.87,0,1.7-0.19,2.15-0.34v-1.28 c-0.46,0.15-1.27,0.33-1.97,0.33c-0.93,0-1.38-0.34-1.48-1.21h3.54c0.02-0.29,0.05-0.65,0.05-0.96c0-1.99-0.85-2.99-2.57-2.99 C110.33,160.68,109.4,161.79,109.4,163.91 M108.86,172.62h-1.63v6.25h1.63V172.62z M107.05,171.11c0,0.5,0.34,0.74,0.99,0.74 c0.65,0,0.99-0.24,0.99-0.74c0-0.5-0.34-0.74-0.99-0.74C107.39,170.36,107.05,170.61,107.05,171.11 M105.58,164.97 c0,1.44,0.6,2.16,1.83,2.16c0.4,0,0.79-0.06,1.11-0.15v-1.62c-0.16,0.05-0.4,0.11-0.62,0.11c-0.5,0-0.69-0.24-0.69-0.78v-5.42 h-1.63V164.97z M101.9,171.11h-1.65v7.76h1.63v-3.44c0.4-0.7,1.01-1.19,1.54-1.19c0.44,0,0.65,0.27,0.65,0.86v3.77h1.63v-4.31 c0-1.44-0.44-2.05-1.41-2.05c-0.99,0-1.85,0.73-2.43,1.62L101.9,171.11z M103.37,167.14c0.39,0,0.79-0.06,1.11-0.15v-1.62 c-0.16,0.05-0.4,0.11-0.62,0.11c-0.5,0-0.69-0.24-0.69-0.78v-5.42h-1.63v5.7C101.55,166.41,102.15,167.14,103.37,167.14 M100.19,159.27c0-0.5-0.34-0.74-0.99-0.74c-0.65,0-0.99,0.24-0.99,0.74c0,0.5,0.34,0.74,0.99,0.74 C99.85,160.01,100.19,159.77,100.19,159.27 M98.38,167.03h1.63v-6.25h-1.63V167.03z M94.82,176.54c0-1.5,0.66-2.36,1.42-2.36 c0.63,0,0.98,0.51,0.98,1.67c0,1.37-0.5,1.87-1.18,1.87c-0.51,0-1-0.36-1.22-0.65V176.54z M94.54,172.62h-1.35v7.8h1.65l-0.02-2.16 c0.34,0.34,1,0.72,1.75,0.72c1.49,0,2.3-1.09,2.3-3.22c0-2.25-0.72-3.24-2.05-3.24c-1.14,0-1.77,0.9-2.05,1.65L94.54,172.62z M90.55,159.27l2.29,7.76h2.13l2.29-7.76H95.6l-1.66,6.26l-1.66-6.26H90.55z M87.89,176.64c0-0.63,0.43-0.95,1.42-1.14l0.71-0.13 v0.16c0,1.15-0.63,1.93-1.36,1.93C88.2,177.46,87.89,177.13,87.89,176.64 M86.44,176.97c0,1.21,0.69,2,1.75,2 c1.05,0,1.65-0.78,1.9-1.5l0.21,1.4h1.35v-3.91c0-1.83-0.85-2.44-2.76-2.44c-0.89,0-1.8,0.2-2.28,0.35v1.37 c0.53-0.16,1.35-0.35,2.2-0.35c0.83,0,1.12,0.15,1.2,0.61l-1.11,0.19C87.34,174.95,86.44,175.66,86.44,176.97 M82.63,172.62h-1.35 v6.25h1.63v-2.62c0-1.28,0.61-2,1.58-2c0.33,0,0.68,0.07,0.93,0.13v-1.71c-0.24-0.09-0.54-0.15-0.81-0.15 c-0.88,0-1.37,0.64-1.75,1.65L82.63,172.62z M75.58,175.01c0-0.64,0.38-1.04,1.09-1.04s1.09,0.4,1.09,1.04 c0,0.64-0.38,1.04-1.09,1.04S75.58,175.65,75.58,175.01 M74.44,176.38c-0.43,0.48-0.76,1.03-0.76,1.63c0,0.88,0.56,1.35,1.85,1.35 h1.77c0.55,0,0.79,0.19,0.79,0.62c0,0.14-0.02,0.3-0.06,0.44h1.51c0.06-0.22,0.09-0.47,0.09-0.7c0-1.19-0.65-1.75-2.13-1.75h-1.78 c-0.57,0-0.79-0.17-0.79-0.5c0-0.17,0.07-0.36,0.2-0.55c0.41,0.21,0.93,0.31,1.54,0.31c1.7,0,2.65-0.84,2.65-2.12 c0-0.43-0.12-0.81-0.34-1.13l1.07,0.04v-1.41h-3.39c-1.72,0-2.69,0.89-2.69,2.32C73.99,175.52,74.15,176.01,74.44,176.38 M85.3,113.64c0-1.44,0.54-2.16,1.5-2.16c0.96,0,1.5,0.72,1.5,2.16v14.62c0,1.44-0.54,2.16-1.5,2.16c-0.96,0-1.5-0.72-1.5-2.16 V113.64z M73.09,117.65c0,14.92,3.59,19.95,13.78,19.95c10.12,0,13.72-5.03,13.72-19.95c0-14.38-3.59-19.95-13.72-19.95 C76.68,97.7,73.09,103.27,73.09,117.65 M41.1,140.59H12.05v22.82c0,12.82,9.7,17.01,30.37,17.01c11.32,0,21.92-1.2,27.67-2.1 v-16.89c-5.51,0.84-14.8,1.8-20.79,1.8c-5.99,0-8.21-1.14-8.21-4.19v-2.16h28.99V144.9H41.1V140.59z M27.26,97.7H12.05v39.89h17.37 v-20.85c0.42-0.66,1.08-1.08,1.74-1.08c0.9,0,1.26,0.66,1.26,1.74v20.19h17.31v-20.85c0.42-0.66,1.08-1.08,1.74-1.08 c0.9,0,1.26,0.66,1.26,1.74v20.19h17.37v-25.94c0-9.94-2.22-13.96-7.49-13.96c-5.87,0-10.42,7.01-12.88,12.46 c-0.24-8.87-2.52-12.46-7.49-12.46c-5.87,0-10.48,7.01-12.82,12.58L27.26,97.7z M16.27,21.41l2.29-7.76H16.9l-1.66,6.26l-1.66-6.26 h-1.72l2.29,7.76H16.27z M16.1,28.9V29c0,1.66-0.68,2.91-1.49,2.91c-0.59,0-0.91-0.54-0.91-1.75c0-1.29,0.51-1.82,1.19-1.82 C15.43,28.35,15.9,28.65,16.1,28.9 M16.08,25.49l0.02,2.13c-0.34-0.34-1-0.72-1.75-0.72c-1.49,0-2.3,1.09-2.3,3.23 c0,2.24,0.72,3.22,2.05,3.22c1.14,0,1.77-0.9,2.05-1.65l0.23,1.55h1.35v-7.76H16.08z M21.48,13.65c0-0.5-0.34-0.74-0.99-0.74 c-0.65,0-0.99,0.24-0.99,0.74s0.34,0.74,0.99,0.74C21.14,14.39,21.48,14.15,21.48,13.65 M21.31,15.16h-1.63v6.25h1.63V15.16z M22.8,29.94h-2.13c0.02-1.11,0.38-1.6,1.09-1.6c0.78,0,1.04,0.64,1.04,1.57V29.94z M21.71,26.89c-1.68,0-2.61,1.12-2.61,3.23 c0,2.22,0.95,3.22,2.89,3.22c0.87,0,1.7-0.19,2.15-0.34v-1.28c-0.47,0.15-1.27,0.33-1.97,0.33c-0.93,0-1.37-0.34-1.48-1.21h3.54 c0.02-0.29,0.05-0.65,0.05-0.96C24.28,27.89,23.44,26.89,21.71,26.89 M24.67,21.51c0.4,0,0.79-0.06,1.11-0.15v-1.62 c-0.16,0.05-0.4,0.11-0.62,0.11c-0.5,0-0.69-0.24-0.69-0.78v-5.42h-1.63v5.7C22.84,20.79,23.45,21.51,24.67,21.51 M28.7,21.51 c0.4,0,0.79-0.06,1.11-0.15v-1.62c-0.16,0.05-0.4,0.11-0.62,0.11c-0.5,0-0.69-0.24-0.69-0.78v-5.42h-1.63v5.7 C26.87,20.79,27.48,21.51,28.7,21.51 M34.39,18.1h-2.13c0.02-1.11,0.38-1.6,1.09-1.6c0.78,0,1.04,0.64,1.04,1.57V18.1z M35.83,19.01c0.02-0.29,0.05-0.65,0.05-0.96c0-1.99-0.85-2.99-2.57-2.99c-1.68,0-2.61,1.12-2.61,3.23c0,2.22,0.95,3.22,2.89,3.22 c0.87,0,1.7-0.19,2.15-0.34V19.9c-0.46,0.15-1.27,0.33-1.97,0.33c-0.93,0-1.37-0.34-1.48-1.21H35.83z M42.6,75.84 c0,1.44-0.54,2.16-1.5,2.16c-0.96,0-1.5-0.72-1.5-2.16v-2.75c0-2.28,0.78-3.3,2.28-3.3h0.72V75.84z M40.32,54.88 c-11.62,0-22.64,1.2-28.27,2.1v10.3C17.86,66.32,27.14,65,35.47,65c4.79,0,6.59,0.42,7.01,1.68l-4.79,0.54 c-17.61,1.92-25.64,6.35-25.64,15.21c0,7.25,5.27,12.28,14.5,12.28c9.46,0,14.38-6.29,16.05-12.52l3.35,12.52h24.14V71.77 C70.09,57.81,60.99,54.88,40.32,54.88 M76.02,51.88c10.12,0,19.41-1.2,24.56-2.1v-9.05c-3.89,0.54-11.08,1.2-16.59,1.2 c-9.88,0-13.9-2.04-13.9-7.19c0-3.29,2.4-4.73,8.51-4.73c7.01,0,16.29,1.44,21.98,2.4V14.14c-5.15-0.9-15.45-2.1-25.76-2.1 c-21.98,0-32.23,5.03-32.23,19.89C42.6,45.65,51.88,51.88,76.02,51.88 M118.85,51.88h12.28v-23.3c0-8.15-1.8-11.38-6.35-11.38 c-4.43,0-7.37,4.79-8.93,8.98V12.05h-12.28v39.83h12.28V31.04c0.42-0.66,1.08-1.08,1.74-1.08c0.9,0,1.26,0.66,1.26,1.74V51.88z M106.93,94.71h24.2V54.88h-27.55v18.75c-0.42,0.66-1.08,1.08-1.74,1.08c-0.9,0-1.26-0.66-1.26-1.74V54.88H73.09v25.88 c0,9.94,3.23,13.96,11.2,13.96c9.11,0,15.81-7.07,19.29-12.58L106.93,94.71z M131.13,137.6v-25.94c0-9.94-1.62-13.96-5.63-13.96 c-4.55,0-7.91,7.07-9.64,12.58L113.7,97.7h-10.12v39.89h12.28v-20.85c0.42-0.66,1.08-1.08,1.74-1.08c0.9,0,1.26,0.66,1.26,1.74 v20.19H131.13z"></path> </g> </svg> 