<?xml version="1.0" encoding="UTF-8" standalone="no"?>
<!-- Created with Inkscape (http://www.inkscape.org/) -->

<svg
   version="1.1"
   id="svg2"
   width="419.84"
   height="186.24001"
   viewBox="0 0 419.84 186.24001"
   sodipodi:docname="logo-la-passerele.svg"
   inkscape:version="1.2.2 (b0a8486541, 2022-12-01)"
   inkscape:export-filename="logo-la-passerele.svg.png"
   inkscape:export-xdpi="96"
   inkscape:export-ydpi="96"
   xmlns:inkscape="http://www.inkscape.org/namespaces/inkscape"
   xmlns:sodipodi="http://sodipodi.sourceforge.net/DTD/sodipodi-0.dtd"
   xmlns="http://www.w3.org/2000/svg"
   xmlns:svg="http://www.w3.org/2000/svg">
  <defs
     id="defs6" />
  <sodipodi:namedview
     id="namedview4"
     pagecolor="#ffffff"
     bordercolor="#000000"
     borderopacity="0.25"
     inkscape:showpageshadow="2"
     inkscape:pageopacity="0"
     inkscape:pagecheckerboard="0"
     inkscape:deskcolor="#d1d1d1"
     showgrid="false"
     inkscape:zoom="1.1360126"
     inkscape:cx="368.3938"
     inkscape:cy="198.94146"
     inkscape:window-width="1920"
     inkscape:window-height="1011"
     inkscape:window-x="0"
     inkscape:window-y="32"
     inkscape:window-maximized="1"
     inkscape:current-layer="svg2" />
  <g
     inkscape:groupmode="layer"
     id="layer2"
     inkscape:label="corps">
    <path
       style="display:inline;fill:#f9b341;fill-opacity:1;stroke:#ffffff;stroke-width:2.8;stroke-linecap:round;stroke-linejoin:round;stroke-dasharray:none;stroke-opacity:1"
       d="m 57.673156,34.940548 18.682275,5.824303 C 71.963108,98.37733 87.396113,129.96632 87.396113,129.96632 L 31.783928,160.7495 C 22.456048,153.36941 9.6955607,74.594829 57.673156,34.940548 Z"
       id="path2155"
       sodipodi:nodetypes="ccccc" />
    <path
       style="display:inline;fill:#f1e400;fill-opacity:1;stroke:#ffffff;stroke-width:2.8;stroke-linecap:round;stroke-linejoin:round;stroke-dasharray:none;stroke-opacity:1"
       d="m 380.87949,16.99541 c 0,0 35.05575,19.211274 39.15054,29.111868 0,0 -16.95142,74.251112 -15.19431,97.132602 0,0 -26.83532,19.57552 -33.55402,15.79833 -1.53057,-5.7029 -5.29189,-37.52487 -21.51552,-57.02651 -6.30568,-4.400053 1.31827,-51.551484 1.31827,-51.551484 1.19626,-6.586734 29.79504,-33.464806 29.79504,-33.464806 z"
       id="path2695"
       sodipodi:nodetypes="ccccccc" />
  </g>
  <g
     inkscape:groupmode="layer"
     inkscape:label="Image"
     id="g8">
    <path
       style="fill:none;stroke:#000000;stroke-opacity:1;stroke-linejoin:round;stroke-linecap:round;stroke-width:2.8;stroke-dasharray:none"
       d="M 75.38229,14.012544 C 72.425382,5.5196983 65.549708,6.2381563 65.549708,6.2381563 49.484826,16.094956 56.270546,45.271345 66.684084,41.780573 c 9.419509,0.268091 13.492428,-6.873169 13.492428,-6.873169"
       id="path288"
       sodipodi:nodetypes="cccc" />
    <path
       style="fill:none;stroke:#000000;stroke-opacity:1;stroke-linejoin:round;stroke-linecap:round;stroke-width:2.8;stroke-dasharray:none"
       d="M 54.975135,44.133436 C 26.824644,73.208803 36.675315,102.58471 36.675315,102.58471"
       id="path1126"
       sodipodi:nodetypes="cc" />
    <path
       style="fill:none;stroke:#000000;stroke-opacity:1;stroke-linejoin:round;stroke-linecap:round;stroke-width:2.8;stroke-dasharray:none"
       d="m 51.554652,79.955907 c 2.692401,4.092446 33.601462,17.101044 33.601462,17.101044 8.906507,-2.55195 14.546892,-5.25697 14.546892,-5.25697 0,0 14.285074,1.586009 16.789864,-2.043608 1.56344,-6.045657 -11.60207,-8.72249 -11.60207,-8.72249 l -4.60564,1.803821"
       id="path1128"
       sodipodi:nodetypes="cccccc" />
    <path
       style="fill:none;stroke:#000000;stroke-opacity:1;stroke-linejoin:round;stroke-linecap:round;stroke-width:2.8;stroke-dasharray:none"
       d="m 41.059193,127.98371 c 3.477306,6.068 2.584241,56.23346 2.584241,56.23346 0,0 24.595955,-12.95171 28.524788,-10.09911"
       id="path1130"
       sodipodi:nodetypes="ccc" />
    <path
       style="fill:none;stroke:#000000;stroke-opacity:1;stroke-linejoin:round;stroke-linecap:round;stroke-width:2.8;stroke-dasharray:none"
       d="m 77.245863,183.99705 c 1.757132,-34.53971 9.208215,-55.34216 9.208215,-55.34216 0,0 5.410246,6.15277 14.353342,56.49315"
       id="path1132"
       sodipodi:nodetypes="ccc" />
    <path
       style="fill:none;stroke:#000000;stroke-opacity:1;stroke-linejoin:round;stroke-linecap:round;stroke-width:2.8;stroke-dasharray:none"
       d="m 75.27053,149.84585 c 9.25937,1.20303 30.52512,-7.37899 31.29534,-3.30321"
       id="path1134"
       sodipodi:nodetypes="cc" />
    <path
       style="fill:none;stroke:#000000;stroke-opacity:1;stroke-linejoin:round;stroke-linecap:round;stroke-width:2.8;stroke-dasharray:none"
       d="m 142.53983,184.61424 c 1.75713,-34.53971 9.20821,-55.34216 9.20821,-55.34216 0,0 5.41025,6.15277 14.35335,56.49315"
       id="path1132-3"
       sodipodi:nodetypes="ccc" />
    <path
       style="fill:none;stroke:#000000;stroke-opacity:1;stroke-linejoin:round;stroke-linecap:round;stroke-width:2.8;stroke-dasharray:none"
       d="m 140.5645,150.46304 c 9.25937,1.20303 30.52512,-7.37899 31.29534,-3.30321"
       id="path1134-6"
       sodipodi:nodetypes="cc" />
    <path
       style="fill:none;stroke:#000000;stroke-opacity:1;stroke-linejoin:round;stroke-linecap:round;stroke-width:2.8;stroke-dasharray:none"
       d="m 119.19432,127.00758 3.3739,56.99438"
       id="path1136" />
    <path
       style="fill:none;stroke:#000000;stroke-opacity:1;stroke-linejoin:round;stroke-linecap:round;stroke-width:2.8;stroke-dasharray:none"
       d="m 120.8982,143.50219 c 0,0 10.58833,-20.896 21.22222,-13.80239 4.72808,18.23226 -20.60835,25.89971 -20.60835,25.89971"
       id="path1138"
       sodipodi:nodetypes="ccc" />
    <path
       style="fill:none;stroke:#000000;stroke-opacity:1;stroke-linejoin:round;stroke-linecap:round;stroke-width:2.8;stroke-dasharray:none"
       d="m 197.50292,137.02816 c -9.50528,-18.0416 -24.68791,-6.0423 -25.45379,4.98258 -1.03972,14.96692 29.58672,31.40481 24.68662,38.04612 -3.89525,5.27939 -5.62263,5.22427 -25.0406,2.57888"
       id="path1142"
       sodipodi:nodetypes="cssc" />
    <path
       style="fill:none;stroke:#000000;stroke-opacity:1;stroke-linejoin:round;stroke-linecap:round;stroke-width:2.8;stroke-dasharray:none"
       d="m 227.4622,136.4866 c -9.50528,-18.0416 -24.68791,-6.0423 -25.45379,4.98258 -1.03972,14.96692 28.97646,30.89569 24.52684,38.07953 -3.7429,6.04287 -5.46285,5.19086 -24.88082,2.54547"
       id="path1142-7"
       sodipodi:nodetypes="cssc" />
    <path
       style="fill:none;stroke:#000000;stroke-opacity:1;stroke-linejoin:round;stroke-linecap:round;stroke-width:2.8;stroke-dasharray:none"
       d="m 253.54304,129.08893 c -11.35889,-4.85973 -21.60155,1.72869 -21.60155,1.72869 0,0 -2.46087,46.58483 2.56257,52.33284 9.97,4.86508 19.07856,-10.27981 19.07856,-10.27981"
       id="path1964"
       sodipodi:nodetypes="cccc" />
    <path
       style="fill:none;stroke:#000000;stroke-opacity:1;stroke-linejoin:round;stroke-linecap:round;stroke-width:2.8;stroke-dasharray:none"
       d="m 249.7442,144.48402 -18.30653,0.61339"
       id="path1966"
       sodipodi:nodetypes="cc" />
    <path
       style="fill:none;stroke:#000000;stroke-opacity:1;stroke-linejoin:round;stroke-linecap:round;stroke-width:2.8;stroke-dasharray:none"
       d="m 309.92662,129.47118 c -11.35889,-4.85973 -21.60155,1.72869 -21.60155,1.72869 0,0 -2.46087,46.58483 2.56257,52.33284 9.97,4.86508 19.07856,-10.27981 19.07856,-10.27981"
       id="path1964-5"
       sodipodi:nodetypes="cccc" />
    <path
       style="fill:none;stroke:#000000;stroke-opacity:1;stroke-linejoin:round;stroke-linecap:round;stroke-width:2.8;stroke-dasharray:none"
       d="m 306.12778,144.86627 -18.30653,0.61339"
       id="path1966-3"
       sodipodi:nodetypes="cc" />
    <path
       style="fill:none;stroke:#000000;stroke-opacity:1;stroke-linejoin:round;stroke-linecap:round;stroke-width:2.8;stroke-dasharray:none"
       d="m 410.38436,129.12626 c -11.35889,-4.85973 -21.60155,1.72869 -21.60155,1.72869 0,0 -2.46087,46.58483 2.56257,52.33284 9.97,4.86508 19.07856,-10.27981 19.07856,-10.27981"
       id="path1964-56"
       sodipodi:nodetypes="cccc" />
    <path
       style="fill:none;stroke:#000000;stroke-opacity:1;stroke-linejoin:round;stroke-linecap:round;stroke-width:2.8;stroke-dasharray:none"
       d="m 406.58552,144.52135 -18.30653,0.61339"
       id="path1966-2"
       sodipodi:nodetypes="cc" />
    <path
       style="fill:none;stroke:#000000;stroke-opacity:1;stroke-linejoin:round;stroke-linecap:round;stroke-width:2.8;stroke-dasharray:none"
       d="m 257.53877,125.60316 3.40575,58.89505"
       id="path1968" />
    <path
       style="fill:none;stroke:#000000;stroke-opacity:1;stroke-linejoin:round;stroke-linecap:round;stroke-width:2.8;stroke-dasharray:none"
       d="m 259.01816,148.13877 c 0,0 8.4381,-26.381 14.45244,-21.28688 10.54619,8.94307 -13.0675,33.41141 -13.0675,33.41141 0,0 14.30074,10.28805 24.4669,11.23216"
       id="path1972"
       sodipodi:nodetypes="cccc" />
    <path
       style="fill:none;stroke:#000000;stroke-opacity:1;stroke-linejoin:round;stroke-linecap:round;stroke-width:2.8;stroke-dasharray:none"
       d="m 313.78182,127.86475 c 2.87362,3.86495 2.68909,56.27679 2.68909,56.27679 0,0 23.18102,-13.64672 28.18244,-9.94947"
       id="path2024"
       sodipodi:nodetypes="ccc" />
    <path
       style="fill:none;stroke:#000000;stroke-opacity:1;stroke-linejoin:round;stroke-linecap:round;stroke-width:2.8;stroke-dasharray:none"
       d="m 383.65195,127.68766 c -2.87362,3.86495 -2.68909,56.27679 -2.68909,56.27679 0,0 -23.18102,-13.64672 -28.18244,-9.94947"
       id="path2024-9"
       sodipodi:nodetypes="ccc" />
    <path
       style="fill:none;stroke:#000000;stroke-opacity:1;stroke-linejoin:round;stroke-linecap:round;stroke-width:2.8;stroke-dasharray:none"
       d="m 375.22848,8.0964104 c 7.68478,-13.2498682 14.29115,0.4811368 14.29115,0.4811368 0,0 2.00398,27.9029388 -2.79308,31.1215938 0,0 -18.99139,11.241681 -19.4479,-10.506399"
       id="path2081"
       sodipodi:nodetypes="cccc" />
    <path
       style="fill:none;stroke:#000000;stroke-opacity:1;stroke-linejoin:round;stroke-linecap:round;stroke-width:2.8;stroke-dasharray:none"
       d="m 383.55116,68.2137 c -2.86676,-1.478395 -9.80475,3.804434 -9.80475,3.804434 -3.4607,1.82685 -44.61818,3.778496 -44.61818,3.778496 0,0 -11.42757,-0.456842 -12.75685,-4.839857 0,0 2.07167,-6.332013 6.6761,-6.540185"
       id="path2083"
       sodipodi:nodetypes="ccccc" />
    <path
       style="fill:none;stroke:#000000;stroke-opacity:1;stroke-linejoin:round;stroke-linecap:round;stroke-width:2.8;stroke-dasharray:none"
       d="m 391.20801,48.623856 10.98998,34.378429 -2.0423,35.200845"
       id="path2085" />
  </g>
</svg>
